<?xml version="1.0" encoding="UTF-8" standalone="no"?>
<svg
   xml:space="preserve"
   width="20.4978in"
   height="18.0152in"
   version="1.1"
   style="shape-rendering:geometricPrecision; text-rendering:geometricPrecision; image-rendering:optimizeQuality; fill-rule:evenodd; clip-rule:evenodd"
   viewBox="0 0 46296.26 40689.13"
   id="svg13"
   sodipodi:docname="creative_commons_logo.svg"
   inkscape:version="1.2.1 (9c6d41e410, 2022-07-14)"
   xmlns:inkscape="http://www.inkscape.org/namespaces/inkscape"
   xmlns:sodipodi="http://sodipodi.sourceforge.net/DTD/sodipodi-0.dtd"
   xmlns="http://www.w3.org/2000/svg"
   xmlns:svg="http://www.w3.org/2000/svg"
   xmlns:rdf="http://www.w3.org/1999/02/22-rdf-syntax-ns#"
   xmlns:cc="http://creativecommons.org/ns#"
   xmlns:dc="http://purl.org/dc/elements/1.1/"><metadata
   id="metadata17"><rdf:RDF><cc:Work
       rdf:about=""><dc:format>image/svg+xml</dc:format><dc:type
         rdf:resource="http://purl.org/dc/dcmitype/StillImage" /></cc:Work></rdf:RDF></metadata><sodipodi:namedview
   pagecolor="#ffffff"
   bordercolor="#666666"
   borderopacity="1"
   objecttolerance="10"
   gridtolerance="10"
   guidetolerance="10"
   inkscape:pageopacity="0"
   inkscape:pageshadow="2"
   inkscape:window-width="2560"
   inkscape:window-height="1351"
   id="namedview15"
   showgrid="false"
   inkscape:zoom="0.43539623"
   inkscape:cx="423.75195"
   inkscape:cy="864.72958"
   inkscape:window-x="-9"
   inkscape:window-y="1071"
   inkscape:window-maximized="1"
   inkscape:current-layer="svg13"
   inkscape:showpageshadow="2"
   inkscape:pagecheckerboard="0"
   inkscape:deskcolor="#d1d1d1"
   inkscape:document-units="in" />
 <defs
   id="defs4">
  <style
   type="text/css"
   id="style2">
   <![CDATA[
    .fil0 {fill:black}
   ]]>
  </style>
 
  
  
 
   
   
  </defs>
 <path
   id="path2656"
   style="fill:#ffffff;stroke:none;stroke-width:1px;stroke-linecap:butt;stroke-linejoin:miter;stroke-opacity:1"
   d="M 649.98241 34.451171 L 231.97265 160.77343 L 22.966796 620.12499 L 275.61132 1175.9394 L 983.0117 1669.7441 L 1743.2402 1136.8965 L 1920.0898 535.14452 L 1665.1504 117.13476 L 1233.3594 52.826171 L 994.49607 250.34765 L 649.98241 34.451171 z M 1024.041 562.48241 C 1078.7285 562.48241 1124.8242 569.38344 1162.3242 583.18554 L 1162.3242 704.66991 C 1124.8242 682.27406 1082.1139 671.07616 1034.1972 671.07616 C 981.59304 671.07616 939.14519 687.61259 906.8535 720.68553 C 874.56181 753.75847 858.416 798.55007 858.416 855.06053 C 858.416 909.22724 873.65035 952.45634 904.11912 984.74803 C 934.5879 1016.7793 975.60346 1032.7949 1027.166 1032.7949 C 1076.3848 1032.7949 1121.4387 1020.8158 1162.3242 996.8574 L 1162.3242 1112.0918 C 1121.4387 1131.8835 1068.0515 1141.7793 1002.166 1141.7793 C 916.22843 1141.7793 848.65041 1116.5189 799.43162 1065.998 C 750.21284 1015.4772 725.6035 948.15955 725.6035 864.0449 C 725.6035 774.4615 753.20763 701.80537 808.416 646.07616 C 863.88479 590.34695 935.75968 562.48241 1024.041 562.48241 z "
   transform="matrix(23.527083,0,0,23.527083,-0.03496469,0)"
   inkscape:export-filename="copyright_32px.png"
   inkscape:export-xdpi="1.5677891"
   inkscape:export-ydpi="1.5677891" /><path
   class="fil0"
   d="m 23204.91,7530.98 c 2944.63,-3188.84 6384.04,-4639.01 10366.38,-4077.21 4110.34,579.88 7609.97,3518.41 8854.17,7479.01 957.39,3047.58 559.96,6460.83 -722.09,9573.35 C 39709.39,25347.1 33817.06,32228.22 23148.13,37038.98 12479.21,32228.22 6586.88,25347.1 4592.89,20506.13 3310.84,17393.61 2913.42,13980.36 3870.8,10932.78 5114.99,6972.18 8614.63,4033.65 12724.97,3453.77 c 3982.46,-561.82 7421.94,888.46 10366.64,4077.48 5.4,5.84 56.52,61.37 56.53,61.36 0.04,0.04 51.9,-56.36 56.79,-61.63 z m -56.79,-4522.44 C 16716.43,-2039.47 6635.87,-722.29 2000.47,6864.48 461.39,9383.51 -116.67,12312.23 19.17,15219.93 c 235.64,5043.59 2412.75,9452.27 5610.61,13256.78 4306.02,5122.9 10531.26,9148.59 17382.21,12152.72 9.53,4.18 88.63,38.56 136.13,59.69 41.66,-17.53 114.6,-50.41 137.01,-60.3 6815.65,-3004.07 13075.56,-7030.12 17381.33,-12152.12 3198.08,-3804.33 5374.97,-8213.2 5610.61,-13256.78 135.85,-2907.7 -442.2,-5836.43 -1981.3,-8355.45 C 39660.37,-722.3 29579.82,-2039.48 23148.12,3008.53 Z"
   id="path7"
   inkscape:export-xdpi="1.5542431"
   inkscape:export-ydpi="1.5542431"
   style="fill:#ffffff" />
</svg>
