<?xml version="1.0" encoding="UTF-8" standalone="no"?>
<svg
   xmlns:dc="http://purl.org/dc/elements/1.1/"
   xmlns:cc="http://creativecommons.org/ns#"
   xmlns:rdf="http://www.w3.org/1999/02/22-rdf-syntax-ns#"
   xmlns:svg="http://www.w3.org/2000/svg"
   xmlns="http://www.w3.org/2000/svg"
   xmlns:sodipodi="http://sodipodi.sourceforge.net/DTD/sodipodi-0.dtd"
   xmlns:inkscape="http://www.inkscape.org/namespaces/inkscape"
   xml:space="preserve"
   width="20.4978in"
   height="18.0152in"
   version="1.1"
   style="shape-rendering:geometricPrecision; text-rendering:geometricPrecision; image-rendering:optimizeQuality; fill-rule:evenodd; clip-rule:evenodd"
   viewBox="0 0 46296.26 40689.13"
   id="svg13"
   sodipodi:docname="creative_commons_logo.svg"
   inkscape:version="1.0.1 (3bc2e813f5, 2020-09-07)"><metadata
   id="metadata17"><rdf:RDF><cc:Work
       rdf:about=""><dc:format>image/svg+xml</dc:format><dc:type
         rdf:resource="http://purl.org/dc/dcmitype/StillImage" /></cc:Work></rdf:RDF></metadata><sodipodi:namedview
   pagecolor="#ffffff"
   bordercolor="#666666"
   borderopacity="1"
   objecttolerance="10"
   gridtolerance="10"
   guidetolerance="10"
   inkscape:pageopacity="0"
   inkscape:pageshadow="2"
   inkscape:window-width="1920"
   inkscape:window-height="1116"
   id="namedview15"
   showgrid="false"
   inkscape:zoom="0.43539623"
   inkscape:cx="983.89444"
   inkscape:cy="864.72958"
   inkscape:window-x="-9"
   inkscape:window-y="-9"
   inkscape:window-maximized="1"
   inkscape:current-layer="svg13" />
 <defs
   id="defs4">
  <style
   type="text/css"
   id="style2">
   <![CDATA[
    .fil0 {fill:black}
   ]]>
  </style>
 
  
  
 
   
   
  </defs>
 <path
   id="path2656"
   style="fill:#ffffff;stroke:#000000;stroke-width:1px;stroke-linecap:butt;stroke-linejoin:miter;stroke-opacity:1"
   d="M 649.98242 34.451172 L 231.97266 160.77344 L 22.966797 620.125 L 275.61133 1175.9395 L 983.01172 1669.7441 L 1743.2402 1136.8965 L 1920.0898 535.14453 L 1665.1504 117.13477 L 1233.3594 52.826172 L 994.49609 250.34766 L 649.98242 34.451172 z M 708.01172 450.5625 C 815.80007 449.96404 922.97578 498.29428 975.26758 598.05664 L 839.38281 667.7168 C 823.80927 631.45518 794.66628 591.116 726.27148 587.58008 C 619.23696 582.04518 587.90819 685.54666 591.61328 775.16211 C 594.3259 840.77075 615.44785 918.98305 686.80859 938.53711 C 777.71957 963.44798 809.19141 920.75941 852.44922 857.68359 L 976.90234 919.375 C 953.8884 973.32327 896.45388 1023.3514 844.75781 1049.2715 C 777.95777 1082.7644 699.40988 1086.4298 627.27344 1070.6582 C 479.32692 1038.3112 410.45525 914.37284 407.88672 770.89648 C 405.3743 630.53569 477.03357 500.38458 618.51562 462.51758 C 647.6009 454.73309 677.83098 450.73007 708.01172 450.5625 z M 1294.6738 450.5625 C 1402.4621 449.96404 1509.6379 498.29428 1561.9297 598.05664 L 1426.0449 667.7168 C 1410.471 631.45518 1381.3303 591.116 1312.9355 587.58008 C 1205.901 582.04518 1174.5699 685.54666 1178.2754 775.16211 C 1180.9876 840.77075 1202.11 918.98305 1273.4707 938.53711 C 1364.3817 963.44798 1395.8555 920.75941 1439.1133 857.68359 L 1563.5664 919.375 C 1540.5525 973.32327 1483.116 1023.3514 1431.4199 1049.2715 C 1364.6199 1082.7644 1286.0739 1086.4298 1213.9375 1070.6582 C 1065.991 1038.3112 997.11693 914.37284 994.54883 770.89648 C 992.0364 630.53569 1063.6976 500.38458 1205.1797 462.51758 C 1234.2649 454.73309 1264.4931 450.73007 1294.6738 450.5625 z "
   transform="matrix(23.527083,0,0,23.527083,-0.03496469,0)"
   inkscape:export-xdpi="1.5542431"
   inkscape:export-ydpi="1.5542431" /><path
   class="fil0"
   d="m 23204.91,7530.98 c 2944.63,-3188.84 6384.04,-4639.01 10366.38,-4077.21 4110.34,579.88 7609.97,3518.41 8854.17,7479.01 957.39,3047.58 559.96,6460.83 -722.09,9573.35 C 39709.39,25347.1 33817.06,32228.22 23148.13,37038.98 12479.21,32228.22 6586.88,25347.1 4592.89,20506.13 3310.84,17393.61 2913.42,13980.36 3870.8,10932.78 5114.99,6972.18 8614.63,4033.65 12724.97,3453.77 c 3982.46,-561.82 7421.94,888.46 10366.64,4077.48 5.4,5.84 56.52,61.37 56.53,61.36 0.04,0.04 51.9,-56.36 56.79,-61.63 z m -56.79,-4522.44 C 16716.43,-2039.47 6635.87,-722.29 2000.47,6864.48 461.39,9383.51 -116.67,12312.23 19.17,15219.93 c 235.64,5043.59 2412.75,9452.27 5610.61,13256.78 4306.02,5122.9 10531.26,9148.59 17382.21,12152.72 9.53,4.18 88.63,38.56 136.13,59.69 41.66,-17.53 114.6,-50.41 137.01,-60.3 6815.65,-3004.07 13075.56,-7030.12 17381.33,-12152.12 3198.08,-3804.33 5374.97,-8213.2 5610.61,-13256.78 135.85,-2907.7 -442.2,-5836.43 -1981.3,-8355.45 C 39660.37,-722.3 29579.82,-2039.48 23148.12,3008.53 Z"
   id="path7"
   inkscape:export-xdpi="1.5542431"
   inkscape:export-ydpi="1.5542431"
   style="fill:#ffffff" />
</svg>
